<?xml version="1.0" encoding="UTF-8" standalone="no"?>
<!DOCTYPE svg PUBLIC "-//W3C//DTD SVG 1.1//EN" "http://www.w3.org/Graphics/SVG/1.1/DTD/svg11.dtd">
<svg width="100%" height="100%" viewBox="0 0 500 500" version="1.1" xmlns="http://www.w3.org/2000/svg" xmlns:xlink="http://www.w3.org/1999/xlink" xml:space="preserve" xmlns:serif="http://www.serif.com/" style="fill-rule:evenodd;clip-rule:evenodd;stroke-linejoin:round;stroke-miterlimit:2;">
    <g transform="matrix(1.333333,0,0,1.333333,196,80.000006)">
        <g>
            <g>
                <g transform="matrix(1,0,0,1,1.436059,121.301155)">
                    <g>
                        <path d="M67.859,-85.281L71.875,-65.906L71.391,-65.672C68.711,-69.566 66.195,-72.812 63.844,-75.406C61.488,-78.008 58.848,-79.977 55.922,-81.312C52.992,-82.656 49.254,-83.328 44.703,-83.328L23.516,-83.328L23.516,-42.391L41.172,-42.391C45.484,-42.391 48.875,-42.797 51.344,-43.609C53.82,-44.422 55.75,-45.719 57.125,-47.5C58.508,-49.289 59.691,-51.691 60.672,-54.703L60.672,-28.141C59.691,-31.148 58.508,-33.547 57.125,-35.328C55.75,-37.117 53.82,-38.422 51.344,-39.234C48.875,-40.047 45.484,-40.453 41.172,-40.453L23.516,-40.453L23.516,-6.938C23.516,-4.75 24.426,-3.227 26.25,-2.375C28.082,-1.52 30.254,-0.93 32.766,-0.609L32.766,0L1.828,0L1.828,-0.609C4.348,-1.504 6.52,-2.641 8.344,-4.016C10.176,-5.398 11.094,-7.188 11.094,-9.375L11.094,-78.328C11.094,-80.523 10.176,-82.051 8.344,-82.906C6.52,-83.758 4.348,-84.348 1.828,-84.672L1.828,-85.281L67.859,-85.281Z" style="fill-rule:nonzero;"/>
                    </g>
                </g>
            </g>
        </g>
    </g>
    <g transform="matrix(1.333333,0,0,1.333333,184,156.000006)">
        <g>
            <g>
                <g transform="matrix(1,0,0,1,1.194083,113.82972)">
                    <g>
                        <path d="M71.906,-79.438C70.758,-79.207 69.672,-78.656 68.641,-77.781C67.617,-76.906 66.441,-75.516 65.109,-73.609C63.773,-71.703 62.047,-69.078 59.922,-65.734L20.422,-1.828L40.062,-1.828C44.781,-1.828 48.789,-2.094 52.094,-2.625C55.406,-3.156 58.223,-4.16 60.547,-5.641C62.867,-7.129 64.906,-9.242 66.656,-11.984C68.406,-14.723 70,-18.297 71.438,-22.703L71.906,-22.703L68.359,0L2.281,0C4.031,-0.758 5.988,-2.469 8.156,-5.125C10.32,-7.789 13.117,-11.863 16.547,-17.344L54.203,-78.062L37.312,-78.062C32.906,-78.062 29.125,-77.797 25.969,-77.266C22.812,-76.734 20.086,-75.707 17.797,-74.188C15.516,-72.664 13.535,-70.535 11.859,-67.797C10.191,-65.055 8.598,-61.441 7.078,-56.953L6.625,-56.953L10.156,-79.891L71.906,-79.891L71.906,-79.438Z" style="fill-rule:nonzero;"/>
                    </g>
                </g>
            </g>
        </g>
    </g>
    <g transform="matrix(1.333333,0,0,1.333333,0,0.000006)">
        <g>
            <clipPath id="_clip1">
                <path d="M194.309,208.633L221.305,208.102L221.773,232.098L194.777,232.625L194.309,208.633Z"/>
            </clipPath>
            <g clip-path="url(#_clip1)">
                <g>
                    <clipPath id="_clip2">
                        <path d="M194.309,208.633L221.305,208.102L221.773,232.098L194.777,232.625L194.309,208.633Z"/>
                    </clipPath>
                    <g clip-path="url(#_clip2)">
                        <g>
                            <clipPath id="_clip3">
                                <path d="M194.309,208.633L221.305,208.102L221.773,232.098L194.777,232.625L194.309,208.633Z"/>
                            </clipPath>
                            <g clip-path="url(#_clip3)">
                                <path d="M218.566,217.965C211.812,219.156 207.316,227.902 207.363,230.188C207.406,232.473 186.586,232.309 198.309,227.504C210.027,222.703 200.344,208.883 206.535,208.402C212.73,207.918 225.32,216.77 218.566,217.965Z" style="fill-rule:nonzero;"/>
                            </g>
                        </g>
                    </g>
                </g>
            </g>
        </g>
    </g>
</svg>
